<?xml version="1.0" encoding="utf-8"?>
<!-- Generator: Adobe Illustrator 24.0.0, SVG Export Plug-In . SVG Version: 6.00 Build 0)  -->
<svg version="1.1" id="Capa_1" xmlns="http://www.w3.org/2000/svg" xmlns:xlink="http://www.w3.org/1999/xlink" x="0px" y="0px"
	 viewBox="0 0 528.5 119.2" style="enable-background:new 0 0 528.5 119.2;" xml:space="preserve">
<style type="text/css">
	.st0{fill:rgba(255, 255, 255, 0);}
	.st1{fill:#59F89C;}
</style>
<path class="st0" d="M232.6,52.5c0-28.7,19.3-42.4,40.1-42.4c18,0,32.9,11.3,35.1,26.8h-10.5C295.7,26.6,285.4,19,272.6,19
	c-17.4,0-29.8,12-29.8,33.5c0,21.6,12.4,33.5,29.8,33.5c12.9,0,23.5-7.6,24.7-17.8h10.2C305.8,83.8,290.9,95,272.6,95
	C251.9,95,232.6,81.1,232.6,52.5 M363.1,55.6v38.6h-9.5V83.8c-3.2,6.9-11.1,11.3-20.3,11.3c-12.7,0-20.9-7.2-20.9-18
	c0-11.4,9.5-18.7,24-18.7h13.5c2.6,0,3.8-1.3,3.8-3.2c0-8.2-5.8-13.7-15.9-13.7c-8.9,0-15.8,5.4-16.2,12h-9.1
	c1.2-11.6,12-20,25.4-20C353.5,33.3,363.1,42.3,363.1,55.6 M353.6,67.1v-1.5H337c-8.9,0-14.8,4.2-14.8,11.3
	c0,6.1,4.8,10.1,12.4,10.1C346.6,87,353.6,79.5,353.6,67.1 M413.1,9.6h9.5v84.5h-9.5V42.7h-27.2v51.5h-9.5V42.7h-10.7v-8.5h10.7v-6
	c0-11.4,7.2-18.6,18.6-18.6h9.5v8.5h-8.9c-5.8,0-9.7,3.8-9.7,10.2v5.8h27.2V9.6z M487.7,74.9c-2,12.3-12.6,20.2-27.5,20.2
	c-17.7,0-29.5-14.2-29.5-31.3c0-17.5,11-30.4,28.5-30.4c17.4,0,27.9,12.1,27.9,27.9c0,1.3-0.1,3.4-0.3,4.2H440
	c0.7,12.3,8.9,21.1,20.2,21.1c9.8,0,15.9-4.2,17.8-11.7C478,74.9,487.7,74.9,487.7,74.9z M440.5,57.9h36.8
	c-0.7-10.1-7.5-16.5-18.1-16.5C449.1,41.4,442.2,47.4,440.5,57.9 M528.5,42.7h-8.3c-12.1,0-15.5,11-15.5,25v26.5h-9.5v-60h9.5v12.1
	c2.5-8.2,7.5-12.1,16.2-12.1h7.6V42.7z"/>
<path class="st1" d="M173.2,79.1c0,3.1-2.3,5.6-5.6,5.6h-15.3c-2.3-14.2-15.2-25-30.1-25c-20,0-29.8,14.2-38.6,26.9
	c-8.8,12.4-16.5,23.1-31.1,23.1c-11.8,0-20.3-9.4-20.3-20.3c0-11,9.6-20.2,19.7-20.2c9.2,0,16.2,3.8,23.1,13.3
	c0.1,0.3,0.6,0.4,0.9,0l5-6.4c0.3-0.4,0.4-0.6,0.1-1C74.6,66,64.6,59.7,51.9,59.7c-14.3,0-26.8,11.4-29.1,25h-8
	c-2.9,0-5.3-2.3-5.3-5.6V53.7c0-3.2,1.2-5.7,3.4-7.9l32.9-32.9c2.8-2.8,4.7-3.4,8-3.4h72.4c2.9,0,5,1.5,5.8,3.9l9.7,28.7
	c1.9,5.8,7.2,9.4,13,9.4h12.9c3.2,0,5.6,2.3,5.6,5.4V79.1z M122.8,109.7c-9.2,0-15.9-4.2-22.8-13.7c-0.1-0.3-0.6-0.4-0.9,0l-5,6.9
	c-0.3,0.4-0.3,0.7-0.1,1c6.6,9.1,16.1,15.4,28.8,15.4c14,0,27.2-11,29.5-25H168c8.2,0,14.8-6.9,14.8-15.1v-22
	c0-8.2-6.6-15.2-14.8-15.2h-13.2c-1.8,0-3.4-0.7-3.8-2.5l-9.8-29.2C139.1,4.4,133,0,126.2,0H53.8c-6,0-10.8,2-14.6,6L6,39.2
	C1.9,43,0,48.1,0,53.7v25.4c0,8.5,6.3,15.1,14.9,15.1h7.9c2.3,14.2,14.8,25,29.7,25c20,0,29.8-14.3,38.9-26.9
	c8.6-12.4,16.2-23.1,30.8-23.1c11.7,0,20.8,9.2,20.8,20.2C143,100.3,133.5,109.7,122.8,109.7"/>
</svg>
