<svg xmlns="http://www.w3.org/2000/svg" viewBox="0 0 183 119.2" style="enable-background:new 0 0 528.5 119.2" xml:space="preserve"><path d="M173.2 79.1c0 3.1-2.3 5.6-5.6 5.6h-15.3c-2.3-14.2-15.2-25-30.1-25-20 0-29.8 14.2-38.6 26.9-8.8 12.4-16.5 23.1-31.1 23.1-11.8 0-20.3-9.4-20.3-20.3 0-11 9.6-20.2 19.7-20.2 9.2 0 16.2 3.8 23.1 13.3.1.3.6.4.9 0l5-6.4c.3-.4.4-.6.1-1-6.4-9.1-16.4-15.4-29.1-15.4-14.3 0-26.8 11.4-29.1 25h-8c-2.9 0-5.3-2.3-5.3-5.6V53.7c0-3.2 1.2-5.7 3.4-7.9l32.9-32.9c2.8-2.8 4.7-3.4 8-3.4h72.4c2.9 0 5 1.5 5.8 3.9l9.7 28.7c1.9 5.8 7.2 9.4 13 9.4h12.9c3.2 0 5.6 2.3 5.6 5.4v22.2zm-50.4 30.6c-9.2 0-15.9-4.2-22.8-13.7-.1-.3-.6-.4-.9 0l-5 6.9c-.3.4-.3.7-.1 1 6.6 9.1 16.1 15.4 28.8 15.4 14 0 27.2-11 29.5-25H168c8.2 0 14.8-6.9 14.8-15.1v-22c0-8.2-6.6-15.2-14.8-15.2h-13.2c-1.8 0-3.4-.7-3.8-2.5l-9.8-29.2C139.1 4.4 133 0 126.2 0H53.8c-6 0-10.8 2-14.6 6L6 39.2C1.9 43 0 48.1 0 53.7v25.4c0 8.5 6.3 15.1 14.9 15.1h7.9c2.3 14.2 14.8 25 29.7 25 20 0 29.8-14.3 38.9-26.9 8.6-12.4 16.2-23.1 30.8-23.1 11.7 0 20.8 9.2 20.8 20.2 0 10.9-9.5 20.3-20.2 20.3" style="fill:#59f89c"/></svg>